<svg xmlns="http://www.w3.org/2000/svg" version="1.1" xmlns:xlink="http://www.w3.org/1999/xlink" width="512" height="512" x="0" y="0" viewBox="0 0 64 64" style="enable-background:new 0 0 512 512" xml:space="preserve" fill-rule="evenodd" class=""><g><path d="M61.25 18c0-8.417-6.833-15.25-15.25-15.25H18C9.583 2.75 2.75 9.583 2.75 18v28c0 8.417 6.833 15.25 15.25 15.25h28c8.417 0 15.25-6.833 15.25-15.25zm-2.5 0v28c0 7.037-5.713 12.75-12.75 12.75H18c-7.037 0-12.75-5.713-12.75-12.75V18c0-7.037 5.713-12.75 12.75-12.75h28c7.037 0 12.75 5.713 12.75 12.75z" fill="#198754" opacity="1" data-original="#000000" class=""></path><path d="M22.5 25.5c0-.69-.56-1.25-1.25-1.25h-8c-.69 0-1.25.56-1.25 1.25V51c0 .69.56 1.25 1.25 1.25h8c.69 0 1.25-.56 1.25-1.25zM20 26.75v23h-5.5v-23zM17.25 11.75C14.352 11.75 12 14.102 12 17s2.352 5.25 5.25 5.25S22.5 19.898 22.5 17s-2.352-5.25-5.25-5.25zm0 2.5a2.751 2.751 0 0 1 0 5.5 2.751 2.751 0 0 1 0-5.5zM35 26.259V25.5c0-.69-.56-1.25-1.25-1.25h-8c-.69 0-1.25.56-1.25 1.25v22.824a3.926 3.926 0 0 0 3.926 3.926h5.324c.69 0 1.25-.56 1.25-1.25V36.02c.004-.033.07-.565.595-1.012.524-.445 1.408-.758 2.842-.758 2.758 0 3.068 1.148 3.068 1.148l1.245 1.352c-.69 0-1.25-.56-1.25-1.25V51c0 .69.56 1.25 1.25 1.25h8c.69 0 1.25-.56 1.25-1.25V33.611a1.406 1.406 0 0 0-.013-.29A10.696 10.696 0 0 0 35 26.259zm14.5 7.335V49.75H44V35.568c.023-.269.034-1.189-.691-2.098-.63-.789-1.945-1.72-4.872-1.72-2.274 0-3.631.647-4.462 1.354-1.49 1.267-1.475 2.874-1.475 2.874V49.75h-4.074A1.425 1.425 0 0 1 27 48.324V26.75h5.5V29a1.25 1.25 0 0 0 2.084.931l1.34-1.201A8.197 8.197 0 0 1 49.5 33.594z" fill="#198754" opacity="1" data-original="#000000" class=""></path></g></svg>