<svg xmlns="http://www.w3.org/2000/svg" version="1.1" xmlns:xlink="http://www.w3.org/1999/xlink" width="512" height="512" x="0" y="0" viewBox="0 0 64 64" style="enable-background:new 0 0 512 512" xml:space="preserve" class=""><g><path d="M44 2H20c-2.76 0-5 2.24-5 5v50c0 2.76 2.24 5 5 5h24c2.76 0 5-2.24 5-5V7c0-2.76-2.24-5-5-5zm3 55c0 1.65-1.35 3-3 3H20c-1.65 0-3-1.35-3-3V7c0-1.65 1.35-3 3-3h4.38l1.17 2.34A2.992 2.992 0 0 0 28.24 8h7.52c1.15 0 2.18-.64 2.69-1.66L39.62 4H44c1.65 0 3 1.35 3 3z" fill="#198754" opacity="1" data-original="#000000"></path><path d="M37 56H27c-.55 0-1 .45-1 1s.45 1 1 1h10c.55 0 1-.45 1-1s-.45-1-1-1z" fill="#198754" opacity="1" data-original="#000000"></path></g></svg>